<svg width="59" height="24" viewBox="0 0 59 24" fill="none" xmlns="http://www.w3.org/2000/svg">
<path d="M8.95717 5.37452C9.63267 5.15147 10.3532 5.0325 11.1008 5.0325C14.3732 5.0325 17.1052 7.33445 17.7297 10.3948L22.3681 9.45795C21.3054 4.25924 16.6639 0.345337 11.1008 0.345337C9.82481 0.345337 8.60291 0.550549 7.45605 0.931233L8.95717 5.37452Z" fill="white"/>
<path d="M3.7636 20.4443L6.80769 16.9074C5.45023 15.6705 4.59381 13.8646 4.59381 11.8521C4.59381 9.84257 5.45023 8.03669 6.80769 6.80282L3.7636 3.26294C1.4565 5.36531 0 8.435 0 11.8521C0 15.2722 1.4565 18.3419 3.7636 20.4443" fill="#5B5B5B"/>
<path d="M17.7297 13.3124C17.1022 16.2729 14.3732 18.499 11.1038 18.499C10.3532 18.499 9.62967 18.3838 8.95717 18.1649L7.45605 22.4732C8.60291 22.8389 9.82782 23.0377 11.1038 23.0377C16.6609 23.0377 21.2993 19.2535 22.3681 14.2253L17.7297 13.3124Z" fill="black"/>
<path d="M26.3375 17.0894C26.1868 16.8459 25.9858 16.457 25.8617 16.169C25.1376 14.4827 25.1051 12.737 25.7139 11.0626C26.3848 9.22489 27.6676 7.82062 29.3257 7.10216C31.4094 6.20259 33.7118 6.37776 35.7098 7.56827C36.9777 8.29861 37.8762 9.42677 38.559 11.024C38.6447 11.2289 38.7215 11.4456 38.7984 11.6326L26.3375 17.0894ZM30.499 9.81272C29.0183 10.451 28.2557 11.8464 28.4153 13.4793L34.6812 10.7687C33.6024 9.49802 32.2015 9.07644 30.499 9.81272V9.81272ZM35.4615 15.7089C35.4585 15.7089 35.4585 15.7118 35.4585 15.7118L35.3285 15.6228C34.9531 16.2314 34.3709 16.7272 33.6349 17.0478C32.234 17.6594 30.9365 17.502 30.0025 16.6797L29.9168 16.8103C29.9168 16.8103 29.9168 16.8073 29.9138 16.8073L28.3237 19.1973C28.7198 19.4734 29.1424 19.7049 29.5858 19.892C31.3414 20.6253 33.1384 20.5897 34.9088 19.8178C36.1886 19.2596 37.1935 18.4105 37.8792 17.3328L35.4615 15.7089ZM43.152 3.58704V16.8697L45.2091 17.7069L44.0416 20.4442L41.7717 19.4941C41.2633 19.2715 40.9146 18.933 40.6545 18.5501C40.4033 18.1611 40.2171 17.6238 40.2171 16.9053V3.58704H43.152ZM48.478 13.4882C48.478 12.357 48.9775 11.3417 49.7637 10.6529L47.6534 8.2897C46.2228 9.56037 45.3214 11.4159 45.3214 13.4822C45.3184 15.5515 46.2199 17.41 47.6475 18.6807L49.7548 16.3175C48.9716 15.6257 48.478 14.6163 48.478 13.4882V13.4882ZM52.2257 17.2556C51.8119 17.2556 51.4099 17.1844 51.0375 17.0597L50.0297 20.0671C50.7183 20.2987 51.4543 20.4264 52.2227 20.4264C55.5626 20.4293 58.3497 18.0483 58.997 14.8865L55.8995 14.2512C55.5478 15.9701 54.0375 17.2586 52.2257 17.2556V17.2556ZM52.2346 6.54995C51.469 6.54995 50.7331 6.67464 50.0444 6.90324L51.0434 9.91366C51.4188 9.78897 51.8178 9.72069 52.2316 9.72069C54.0463 9.72365 55.5596 11.0181 55.9025 12.74L58.9999 12.1106C58.3645 8.94285 55.5773 6.55292 52.2346 6.54995V6.54995Z" fill="#BCBCBC"/>
</svg>
